<svg xmlns="http://www.w3.org/2000/svg" viewBox="0 0 748 211" xml:space="preserve"><path fill="#ff5252" d="M384.843 153v52.715h-37.057V6.12c11.872 0 23.633-.122 35.385.143 1.619.036 3.418 1.77 4.755 3.1 21.147 21.028 42.231 42.12 63.598 63.464 1.296-1.219 2.598-2.383 3.834-3.613 20.199-20.1 40.344-40.255 60.666-60.23 1.652-1.623 4.487-2.792 6.809-2.857 10.651-.3 21.315-.132 32.33-.132v199.679H518.16V80.768l-66.237 66.2c-22.454-22.345-44.458-44.243-67.08-66.758V153zm-96.685 18V75.237l-1.316-.901c-1.065 1.394-1.988 2.93-3.217 4.162a99040.403 99040.403 0 0 1-81.991 82.03c-14.137 14.133-28.233 28.309-42.513 42.296-1.606 1.572-4.287 2.867-6.484 2.89-21.154.214-42.31.128-64.225.128 1.101-1.383 1.765-2.409 2.61-3.253A405180.582 405180.582 0 0 1 243.495 50.356c13.681-13.651 27.477-27.188 41.099-40.897 2.398-2.414 4.793-3.582 8.274-3.538 14.322.179 28.647.074 43.31.074v199.68h-48.02V171zM33.195 33.806 5.355 5.998c2.993 0 4.694-.004 6.396.001 16.326.055 32.652.203 48.977.092 3.44-.023 5.879.977 8.296 3.426 23.282 23.596 46.675 47.082 70.102 70.666 12.092-12.064 23.76-23.694 35.417-35.337 11.55-11.536 23.148-23.025 34.589-34.669 2.872-2.923 5.859-4.33 10.079-4.268 15.659.225 31.322.08 46.984.101 1.936.003 3.87.163 5.806.25l.864 1.253c-2.394 2.138-4.895 4.169-7.166 6.43-51.224 51.033-102.416 102.096-153.63 153.138-11.439 11.4-22.998 22.68-34.37 34.144-3.198 3.224-6.439 4.855-11.268 4.754-17.277-.36-34.566-.141-51.184-.141l93.637-94.7c-25.43-25.983-50.434-51.533-75.69-77.332zM566.493 11.23V6.182h37.261V169h5.768c31.151 0 62.303-.077 93.453.138 2.617.018 5.84 1.35 7.73 3.165 11.129 10.7 21.947 21.723 33.556 33.324H566.493V11.23z"/></svg>